<svg width="16" height="16" viewBox="0 0 16 16" fill="none" xmlns="http://www.w3.org/2000/svg">
<g clip-path="url(#clip0_303_497)">
<path d="M5.33289 4.00004V3.46671C5.33289 2.28671 5.33289 1.33337 7.46623 1.33337H8.53289C10.6662 1.33337 10.6662 2.28671 10.6662 3.46671V4.00004M5.33289 14.6667H10.6662C13.3462 14.6667 13.8262 13.5934 13.9662 12.2867L14.4662 6.95337C14.6462 5.32671 14.1796 4.00004 11.3329 4.00004H4.66623C1.81956 4.00004 1.35289 5.32671 1.53289 6.95337L2.03289 12.2867C2.17289 13.5934 2.65289 14.6667 5.33289 14.6667Z" stroke="black" stroke-width="1.5" stroke-miterlimit="10" stroke-linecap="round" stroke-linejoin="round"/>
<path d="M9.33374 9.34671V8.66671C9.33374 8.00004 9.33374 8.00004 8.66707 8.00004H7.33374C6.66707 8.00004 6.66707 8.00004 6.66707 8.66671V9.35337M9.33374 9.34671C9.33374 10.0734 9.32707 10.6667 8.0004 10.6667C6.6804 10.6667 6.66707 10.08 6.66707 9.35337M9.33374 9.34671C11.1765 9.11729 12.9312 8.42462 14.4337 7.33337M6.66707 9.35337C4.9404 9.16004 3.24707 8.54004 1.74707 7.51337" stroke="black" stroke-width="1.5" stroke-miterlimit="10" stroke-linecap="round" stroke-linejoin="round"/>
</g>
<defs>
<clipPath id="clip0_303_497">
<rect width="16" height="16" fill="white"/>
</clipPath>
</defs>
</svg>
